<?xml version="1.0" standalone="no"?>
<!DOCTYPE svg PUBLIC "-//W3C//DTD SVG 20010904//EN"
 "http://www.w3.org/TR/2001/REC-SVG-20010904/DTD/svg10.dtd">
<svg version="1.0" xmlns="http://www.w3.org/2000/svg"
 width="65.000000pt" height="62.000000pt" viewBox="0 0 65.000000 62.000000"
 preserveAspectRatio="xMidYMid meet">
<metadata>
Created by potrace 1.16, written by Peter Selinger 2001-2019
</metadata>
<g transform="translate(0.000000,62.000000) scale(0.100000,-0.100000)"
fill="#000000" stroke="none">
<path d="M300 556 c0 -31 -3 -34 -40 -40 -23 -4 -54 -18 -72 -35 -28 -25 -33
-36 -33 -74 0 -56 29 -90 97 -115 l48 -17 0 -47 c0 -27 -4 -48 -9 -48 -10 0
-77 72 -82 89 -3 7 -16 9 -37 5 -24 -5 -31 -11 -28 -23 3 -9 10 -44 17 -78 9
-50 15 -63 30 -63 10 0 22 7 26 15 8 13 13 12 46 -2 33 -15 37 -21 37 -55 0
-36 2 -38 30 -38 27 0 30 3 30 34 0 32 3 35 50 51 81 27 116 92 85 159 -16 32
-53 58 -117 79 -13 5 -18 18 -20 44 l-1 38 -4 -34 c-5 -40 3 -50 59 -71 54
-20 92 -72 84 -115 -7 -35 -54 -82 -93 -91 -41 -10 -53 -23 -53 -55 0 -22 -5
-29 -20 -29 -16 0 -20 7 -20 35 0 30 -5 37 -41 55 -39 20 -42 21 -60 4 -11 -9
-21 -15 -24 -13 -2 3 -11 35 -18 71 -14 65 -14 67 7 72 14 4 24 0 31 -11 19
-34 75 -85 87 -81 8 3 14 26 16 56 3 43 0 53 -15 58 -10 4 -37 15 -61 26 -106
49 -85 172 32 195 37 8 41 12 44 41 2 24 8 32 23 32 15 0 19 -7 19 -35 0 -41
24 -58 68 -49 28 6 30 4 40 -39 7 -24 14 -52 18 -61 12 -31 -35 -18 -67 19
-17 19 -36 35 -42 35 -6 0 -1 -7 11 -16 12 -8 29 -28 37 -43 11 -23 19 -27 40
-23 14 2 27 8 30 12 2 4 -4 36 -14 71 -17 62 -31 76 -57 58 -5 -5 -20 -6 -32
-2 -18 4 -22 13 -22 44 0 37 -2 39 -30 39 -27 0 -30 -3 -30 -34z"/>
</g>
</svg>
