<?xml version="1.0" standalone="no"?>
<!DOCTYPE svg PUBLIC "-//W3C//DTD SVG 20010904//EN"
 "http://www.w3.org/TR/2001/REC-SVG-20010904/DTD/svg10.dtd">
<svg version="1.0" xmlns="http://www.w3.org/2000/svg"
 width="65.000000pt" height="62.000000pt" viewBox="0 0 65.000000 62.000000"
 preserveAspectRatio="xMidYMid meet">
<metadata>
Created by potrace 1.16, written by Peter Selinger 2001-2019
</metadata>
<g transform="translate(0.000000,62.000000) scale(0.100000,-0.100000)"
fill="#000000" stroke="none">
<path d="M160 320 c-83 -138 -148 -255 -145 -260 4 -6 120 -10 311 -10 249 0
306 2 310 14 3 7 -47 101 -112 207 -164 272 -182 299 -198 299 -8 0 -82 -111
-166 -250z m300 -23 c66 -109 120 -200 120 -203 0 -2 -113 -4 -251 -4 -229 0
-251 1 -245 16 7 18 146 252 204 342 18 29 37 52 42 50 5 -2 64 -92 130 -201z"/>
<path d="M340 331 c0 -49 4 -65 25 -89 20 -24 25 -41 25 -86 0 -53 1 -56 25
-56 24 0 25 3 25 59 0 46 -5 66 -25 95 -18 27 -25 50 -25 86 0 47 -2 50 -25
50 -24 0 -25 -3 -25 -59z"/>
</g>
</svg>
