<?xml version="1.0" standalone="no"?>
<!DOCTYPE svg PUBLIC "-//W3C//DTD SVG 20010904//EN"
 "http://www.w3.org/TR/2001/REC-SVG-20010904/DTD/svg10.dtd">
<svg version="1.0" xmlns="http://www.w3.org/2000/svg"
 width="189.000000pt" height="306.000000pt" viewBox="0 0 189.000000 306.000000"
 preserveAspectRatio="xMidYMid meet">
<metadata>
Created by potrace 1.16, written by Peter Selinger 2001-2019
</metadata>
<g transform="translate(0.000000,306.000000) scale(0.100000,-0.100000)"
fill="#000000" stroke="none">
<path d="M531 1951 c-142 -190 -268 -362 -280 -381 -44 -73 -43 -75 247 -437
310 -386 325 -404 342 -401 13 3 15 36 18 221 l2 217 390 0 c375 0 390 1 400
19 14 27 14 645 0 672 -10 18 -25 19 -405 19 l-395 0 -2 208 -3 207 -28 1
c-25 1 -52 -32 -286 -345z"/>
</g>
</svg>
