<?xml version="1.0" standalone="no"?>
<!DOCTYPE svg PUBLIC "-//W3C//DTD SVG 20010904//EN"
 "http://www.w3.org/TR/2001/REC-SVG-20010904/DTD/svg10.dtd">
<svg version="1.0" xmlns="http://www.w3.org/2000/svg"
 width="189.000000pt" height="306.000000pt" viewBox="0 0 189.000000 306.000000"
 preserveAspectRatio="xMidYMid meet">
<metadata>
Created by potrace 1.16, written by Peter Selinger 2001-2019
</metadata>
<g transform="translate(0.000000,306.000000) scale(0.100000,-0.100000)"
fill="#000000" stroke="none">
<path d="M860 2300 l0 -280 -430 0 -430 0 0 -465 0 -465 430 0 430 0 2 -284 3
-284 375 390 c206 215 428 446 493 514 l119 124 -22 27 c-12 16 -74 82 -139
148 -64 66 -276 285 -470 488 -194 202 -355 367 -357 367 -2 0 -4 -126 -4
-280z"/>
</g>
</svg>
