<?xml version="1.0" standalone="no"?>
<!DOCTYPE svg PUBLIC "-//W3C//DTD SVG 20010904//EN"
 "http://www.w3.org/TR/2001/REC-SVG-20010904/DTD/svg10.dtd">
<svg version="1.0" xmlns="http://www.w3.org/2000/svg"
 width="65.000000pt" height="62.000000pt" viewBox="0 0 65.000000 62.000000"
 preserveAspectRatio="xMidYMid meet">
<metadata>
Created by potrace 1.16, written by Peter Selinger 2001-2019
</metadata>
<g transform="translate(0.000000,62.000000) scale(0.100000,-0.100000)"
fill="#000000" stroke="none">
<path d="M223 433 c-191 -357 -213 -400 -206 -406 9 -10 611 -9 617 1 7 12
-291 567 -307 570 -10 2 -45 -53 -104 -165z m243 -130 l134 -248 -141 -3 c-77
-1 -200 -1 -274 0 l-134 3 137 252 c75 138 139 249 141 247 2 -2 64 -115 137
-251z"/>
</g>
</svg>
