<?xml version="1.0" standalone="no"?>
<!DOCTYPE svg PUBLIC "-//W3C//DTD SVG 20010904//EN"
 "http://www.w3.org/TR/2001/REC-SVG-20010904/DTD/svg10.dtd">
<svg version="1.0" xmlns="http://www.w3.org/2000/svg"
 width="65.000000pt" height="62.000000pt" viewBox="0 0 65.000000 62.000000"
 preserveAspectRatio="xMidYMid meet">
<metadata>
Created by potrace 1.16, written by Peter Selinger 2001-2019
</metadata>
<g transform="translate(0.000000,62.000000) scale(0.100000,-0.100000)"
fill="#000000" stroke="none">
<path d="M308 597 c-18 -14 -298 -534 -298 -553 0 -30 42 -34 322 -34 286 0
308 3 308 36 0 20 -286 546 -302 555 -9 5 -21 4 -30 -4z m147 -283 c66 -124
121 -232 123 -240 3 -12 -35 -14 -252 -14 -167 0 -256 4 -256 10 0 6 13 34 29
63 15 28 66 122 111 207 96 180 108 200 118 200 4 0 61 -102 127 -226z"/>
<path d="M290 325 l0 -65 -40 0 c-22 0 -40 -4 -40 -10 0 -5 18 -10 40 -10 l40
0 0 -80 0 -80 35 0 35 0 0 80 0 80 40 0 c22 0 40 5 40 10 0 6 -18 10 -40 10
l-40 0 0 65 0 65 -35 0 -35 0 0 -65z"/>
</g>
</svg>
